<svg viewBox="0 0 700 400" xmlns="http://www.w3.org/2000/svg">
  <!-- M - First letter -->
  <path d="M 40 350 L 40 50 L 80 50 L 130 230 L 180 50 L 220 50 L 220 350 L 180 350 L 180 150 L 155 280 L 105 280 L 80 150 L 80 350 Z" fill="black"/>
  
  <!-- I - Second letter -->
  <rect x="250" y="50" width="50" height="40" fill="black"/>
  <rect x="260" y="90" width="30" height="220" fill="black"/>
  <rect x="250" y="310" width="50" height="40" fill="black"/>
  
  <!-- I - Third letter (second I) -->
  <rect x="340" y="50" width="50" height="40" fill="black"/>
  <rect x="350" y="90" width="30" height="220" fill="black"/>
  <rect x="340" y="310" width="50" height="40" fill="black"/>
  
  <!-- X - Fourth letter -->
  <g transform="translate(500, 200)">
    <!-- Left diagonal of X -->
    <rect x="-75" y="-20" width="150" height="40" fill="black" transform="rotate(45)"/>
    <!-- Right diagonal of X -->
    <rect x="-75" y="-20" width="150" height="40" fill="black" transform="rotate(-45)"/>
  </g>
</svg>